<svg xmlns="http://www.w3.org/2000/svg" xmlns:svg="http://www.w3.org/2000/svg" xmlns:xlink="http://www.w3.org/1999/xlink" version="1.0" height="909.9999994039536pt" width="855.0000011920929pt" viewBox="140 387 863.0000011920929 915.9999994039536" ><defs><style type="text/css">
            @font-face {
                font-family: 'noto_regular';
                src: url('https://app.creately.com/diagram/assets/fonts/noto/noto-regular.woff') format('woff'),
                     url('https://app.creately.com/diagram/assets/fonts/noto/noto-regular.woff2') format('woff2');
                font-weight: normal;
                font-style: normal;
            }
        p {
            margin: 0;
        }
        </style></defs><defs><style>
            span{ display: inline-block; }
        </style></defs><g id="2dthsb9udb"><g transform="translate(280 765)"><rect x="0" y="0" width="75" height="35.1500004529953" fill="rgba(255,255,255,1)" stroke="#75c19b" stroke-width="1.5" stroke-linecap="round" stroke-linejoin="round"/></g><g transform="translate(289.5, 773.0750002264977) rotate(0, 28, 9.5)" width="56" height="19"><text text-decoration="none" x="1.5" fill="rgb(75, 75, 75)" font-size="10pt" font-family="Lato"  y="17">students</text><text text-decoration="none" x="54.5" fill="#4b4b4b" font-size="10pt" font-family="noto_regular"  y="17"></text></g></g><g id="4xu9wo68ea"><g transform="translate(155 810)"><ellipse cx="42.500001192092896" cy="20.000000298023224" rx="42.500001192092896" ry="20.000000298023224" fill="rgba(255,255,255,1)" stroke="#f6902a" stroke-width="1.5" stroke-linecap="round" stroke-linejoin="round"/></g><g transform="translate(167.5000011920929, 820.5000002980232) rotate(0, 30, 9.5)" width="60" height="19"><text text-decoration="underline" x="2" fill="rgb(75, 75, 75)" font-size="10pt" font-family="Lato"  y="17">enroll_no</text><text text-decoration="none" x="58" fill="#4b4b4b" font-size="10pt" font-family="noto_regular"  y="17"></text></g></g><g id="2giuaqlitl"><g><path d="M 280,785 L 240,830" fill="none" stroke="#a0a0a0" stroke-width="1.5" stroke-linecap="round" stroke-linejoin="round"/></g></g><g id="t4jljyis69"><g transform="translate(785 765)"><rect x="0" y="0" width="85.00000238418579" height="35.00000238418579" fill="rgba(255,255,255,1)" stroke="#75c19b" stroke-width="1.5" stroke-linecap="round" stroke-linejoin="round"/></g><g transform="translate(793.5000011920929, 773.0000011920929) rotate(0, 34, 9.5)" width="68" height="19"><text text-decoration="none" x="2.5" fill="rgb(75, 75, 75)" font-size="10pt" font-family="Lato"  y="17">professors</text><text text-decoration="none" x="65.5" fill="#4b4b4b" font-size="10pt" font-family="noto_regular"  y="17"></text></g></g><g id="1a61jirwxm"><g transform="translate(145 725)"><ellipse cx="40.00000059604645" cy="17.500001192092896" rx="40.00000059604645" ry="17.500001192092896" fill="rgba(255,255,255,1)" stroke="#f6902a" stroke-width="1.5" stroke-linecap="round" stroke-linejoin="round"/></g><g transform="translate(154.50000059604645, 733.0000011920929) rotate(0, 30.5, 9.5)" width="61" height="19"><text text-decoration="none" x="4" fill="rgb(75, 75, 75)" font-size="10pt" font-family="Lato"  y="17">class_roll</text><text text-decoration="none" x="57" fill="#4b4b4b" font-size="10pt" font-family="noto_regular"  y="17"></text></g></g><g id="1gcz4dn8gn"><g><path d="M 280,785 L 195,760" fill="none" stroke="#a0a0a0" stroke-width="1.5" stroke-linecap="round" stroke-linejoin="round"/></g></g><g id="b8akhvg479"><g transform="translate(170 660)"><ellipse cx="30.000001192092896" cy="17.500001192092896" rx="30.000001192092896" ry="17.500001192092896" fill="rgba(255,255,255,1)" stroke="#f6902a" stroke-width="1.5" stroke-linecap="round" stroke-linejoin="round"/></g><g transform="translate(181.5000011920929, 668.0000011920929) rotate(0, 18.5, 9.5)" width="37" height="19"><text text-decoration="none" x="1.5" fill="rgb(75, 75, 75)" font-size="10pt" font-family="Lato"  y="17">name</text><text text-decoration="none" x="35.5" fill="#4b4b4b" font-size="10pt" font-family="noto_regular"  y="17"></text></g></g><g id="1s3ej8xiew"><g><path d="M 280,785 L 220,690" fill="none" stroke="#a0a0a0" stroke-width="1.5" stroke-linecap="round" stroke-linejoin="round"/></g></g><g id="c81p3z38cc"><g transform="translate(175 605)"><ellipse cx="30.000001192092896" cy="17.500001192092896" rx="30.000001192092896" ry="17.500001192092896" fill="rgba(255,255,255,1)" stroke="#f6902a" stroke-width="1.5" stroke-linecap="round" stroke-linejoin="round"/></g><g transform="translate(190.5000011920929, 613.0000011920929) rotate(0, 14.5, 9.5)" width="29" height="19"><text text-decoration="none" x="1.5" fill="rgb(75, 75, 75)" font-size="10pt" font-family="Lato"  y="17">year</text><text text-decoration="none" x="27.5" fill="#4b4b4b" font-size="10pt" font-family="noto_regular"  y="17"></text></g></g><g id="2a8nvkfvpd"><g><path d="M 320,765 L 225,635" fill="none" stroke="#a0a0a0" stroke-width="1.5" stroke-linecap="round" stroke-linejoin="round"/></g></g><g id="2bt99xii2n"><g transform="translate(240 580)"><ellipse cx="35.00000834465027" cy="17.500001192092896" rx="35.00000834465027" ry="17.500001192092896" fill="rgba(255,255,255,1)" stroke="#f6902a" stroke-width="1.5" stroke-linecap="round" stroke-linejoin="round"/></g><g transform="translate(251.50000834465027, 588.0000011920929) rotate(0, 23.5, 9.5)" width="47" height="19"><text text-decoration="none" x="2" fill="rgb(75, 75, 75)" font-size="10pt" font-family="Lato"  y="17">section</text><text text-decoration="none" x="45" fill="#4b4b4b" font-size="10pt" font-family="noto_regular"  y="17"></text></g></g><g id="23o78imsq4"><g><path d="M 320,765 L 265,615" fill="none" stroke="#a0a0a0" stroke-width="1.5" stroke-linecap="round" stroke-linejoin="round"/></g></g><g id="21o0z1g771"><g transform="translate(295 630)"><ellipse cx="40.00000059604645" cy="17.499999701976776" rx="40.00000059604645" ry="17.499999701976776" fill="rgba(255,255,255,1)" stroke="#f6902a" stroke-width="1.5" stroke-linecap="round" stroke-linejoin="round"/></g><g transform="translate(304.00000059604645, 637.9999997019768) rotate(0, 31, 9.5)" width="62" height="19"><text text-decoration="none" x="2" fill="rgb(75, 75, 75)" font-size="10pt" font-family="Lato"  y="17">password</text><text text-decoration="none" x="60" fill="#4b4b4b" font-size="10pt" font-family="noto_regular"  y="17"></text></g></g><g id="2fpw42kjxp"><g><path d="M 320,765 L 325,665" fill="none" stroke="#a0a0a0" stroke-width="1.5" stroke-linecap="round" stroke-linejoin="round"/></g></g><g id="20gjm6jkz4"><g transform="translate(750 625)"><ellipse cx="42.500001192092896" cy="22.499999403953552" rx="42.500001192092896" ry="22.499999403953552" fill="rgba(255,255,255,1)" stroke="#f6902a" stroke-width="1.5" stroke-linecap="round" stroke-linejoin="round"/></g><g transform="translate(770.0000011920929, 637.9999994039536) rotate(0, 22.5, 9.5)" width="45" height="19"><text text-decoration="underline" x="1.5" fill="rgb(75, 75, 75)" font-size="10pt" font-family="Lato"  y="17">prof_id</text><text text-decoration="none" x="43.5" fill="#4b4b4b" font-size="10pt" font-family="noto_regular"  y="17"></text></g></g><g id="2m268thq0r"><g><path d="M 830,765 L 820,665" fill="none" stroke="#a0a0a0" stroke-width="1.5" stroke-linecap="round" stroke-linejoin="round"/></g></g><g id="2hjskzfurs"><g transform="translate(855 620)"><ellipse cx="37.5" cy="17.499999701976776" rx="37.5" ry="17.499999701976776" fill="rgba(255,255,255,1)" stroke="#f6902a" stroke-width="1.5" stroke-linecap="round" stroke-linejoin="round"/></g><g transform="translate(874, 627.9999997019768) rotate(0, 18.5, 9.5)" width="37" height="19"><text text-decoration="none" x="1.5" fill="rgb(75, 75, 75)" font-size="10pt" font-family="Lato"  y="17">name</text><text text-decoration="none" x="35.5" fill="#4b4b4b" font-size="10pt" font-family="noto_regular"  y="17"></text></g></g><g id="7a6tp9ln5t"><g><path d="M 830,765 L 880,655" fill="none" stroke="#a0a0a0" stroke-width="1.5" stroke-linecap="round" stroke-linejoin="round"/></g></g><g id="2hmrdve21l"><g transform="translate(920 660)"><ellipse cx="40.00000059604645" cy="22.499999403953552" rx="40.00000059604645" ry="22.499999403953552" fill="rgba(255,255,255,1)" stroke="#f6902a" stroke-width="1.5" stroke-linecap="round" stroke-linejoin="round"/></g><g transform="translate(929.0000005960464, 672.9999994039536) rotate(0, 31, 9.5)" width="62" height="19"><text text-decoration="none" x="2" fill="rgb(75, 75, 75)" font-size="10pt" font-family="Lato"  y="17">password</text><text text-decoration="none" x="60" fill="#4b4b4b" font-size="10pt" font-family="noto_regular"  y="17"></text></g></g><g id="15rnf2uxas"><g><path d="M 870,785 L 935,700" fill="none" stroke="#a0a0a0" stroke-width="1.5" stroke-linecap="round" stroke-linejoin="round"/></g></g><g id="2new4613ed"><g transform="translate(510 875)"><rect x="0" y="0" width="89.99999761581421" height="30.000001192092896" fill="rgba(255,255,255,1)" stroke="#75c19b" stroke-width="1.5" stroke-linecap="round" stroke-linejoin="round"/></g><g transform="translate(527.9999988079071, 880.5000005960464) rotate(0, 27, 9.5)" width="54" height="19"><text text-decoration="none" x="2.5" fill="rgb(75, 75, 75)" font-size="10pt" font-family="Lato"  y="17">subjects</text><text text-decoration="none" x="51.5" fill="#4b4b4b" font-size="10pt" font-family="noto_regular"  y="17"></text></g></g><g id="avb8i9tpf7"><g transform="translate(514.95 985)"><ellipse cx="42.49999821186066" cy="19.999998807907104" rx="42.49999821186066" ry="19.999998807907104" fill="rgba(255,255,255,1)" stroke="#f6902a" stroke-width="1.5" stroke-linecap="round" stroke-linejoin="round"/></g><g transform="translate(523.9499982118607, 995.4999988079071) rotate(0, 33.5, 9.5)" width="67" height="19"><text text-decoration="none" x="2.5" fill="rgb(75, 75, 75)" font-size="10pt" font-family="Lato"  y="17">sub_name</text><text text-decoration="none" x="64.5" fill="#4b4b4b" font-size="10pt" font-family="noto_regular"  y="17"></text></g></g><g id="4qx8lo5qdt"><g><path d="M 555,905 L 554.95,985" fill="none" stroke="#a0a0a0" stroke-width="1.5" stroke-linecap="round" stroke-linejoin="round"/></g></g><g id="2g1r6yg6wj"><g transform="translate(435 950)"><ellipse cx="37.5" cy="19.999998807907104" rx="37.5" ry="19.999998807907104" fill="rgba(255,255,255,1)" stroke="#f6902a" stroke-width="1.5" stroke-linecap="round" stroke-linejoin="round"/></g><g transform="translate(451.5, 960.4999988079071) rotate(0, 21, 9.5)" width="42" height="19"><text text-decoration="underline" x="1.5" fill="rgb(75, 75, 75)" font-size="10pt" font-family="Lato"  y="17">sub_id</text><text text-decoration="none" x="40.5" fill="#4b4b4b" font-size="10pt" font-family="noto_regular"  y="17"></text></g></g><g id="24vfncphvk"><g><path d="M 555,905 L 495,955" fill="none" stroke="#a0a0a0" stroke-width="1.5" stroke-linecap="round" stroke-linejoin="round"/></g></g><g id="rah42fsrmr"><g transform="translate(610 970)"><ellipse cx="34.99999940395355" cy="17.499999701976776" rx="34.99999940395355" ry="17.499999701976776" fill="rgba(255,255,255,1)" stroke="#f6902a" stroke-width="1.5" stroke-linecap="round" stroke-linejoin="round"/></g><g transform="translate(630.4999994039536, 977.9999997019768) rotate(0, 14.5, 9.5)" width="29" height="19"><text text-decoration="none" x="1.5" fill="rgb(75, 75, 75)" font-size="10pt" font-family="Lato"  y="17">year</text><text text-decoration="none" x="27.5" fill="#4b4b4b" font-size="10pt" font-family="noto_regular"  y="17"></text></g></g><g id="1om35rksjl"><g><path d="M 555,905 L 625,970" fill="none" stroke="#a0a0a0" stroke-width="1.5" stroke-linecap="round" stroke-linejoin="round"/></g></g><g id="cpfhzppam4"><g transform="translate(340 850)"><path d="M 110.0000011920929,37.5 L 55.00000059604645,75 L 0,37.5 L 55.00000059604645,0 L 110.0000011920929,37.5 L 110.0000011920929,37.5 Z" fill="rgba(255,255,255,1)" stroke="#75c19b" stroke-width="1.5" stroke-linecap="round" stroke-linejoin="round"/></g><g transform="translate(357.50000059604645, 870) rotate(0, 37.5, 17.5)" width="75" height="35"><text text-decoration="none" x="21.5" fill="rgb(75, 75, 75)" font-size="10pt" font-family="Lato"  y="14">takes</text><text text-decoration="none" x="53.5" fill="rgb(75, 75, 75)" font-size="10pt" font-family="Lato"  y="14"></text><text text-decoration="none" x="3" fill="rgb(75, 75, 75)" font-size="10pt" font-family="Lato"  y="36">(stud_subs)</text><text text-decoration="none" x="72" fill="#4b4b4b" font-size="10pt" font-family="noto_regular"  y="36"></text></g></g><g id="2m0nnlqx84"><mask id="0e50d" x="307" y="787" width="101" height="76" maskUnits="userSpaceOnUse"><rect x="307" y="787" width="101" height="76" fill="white" /><rect x="350.42499977350235" y="812.5750002264977" width="14" height="25" fill="black" /><rect x="350.42499977350235" y="812.5750002264977" width="14" height="25" fill="black" /></mask><g mask="url(#0e50d)"><path d="M 320,800 L 320,825.0750002264977 L 357.5,825.0750002264977 L 395,825.0750002264977 L 395,850" fill="none" stroke="#a0a0a0" stroke-width="1.5" stroke-linecap="round" stroke-linejoin="round"/></g><g transform="translate(353.42499977350235, 815.5750002264977)" width="8" height="19"><text text-decoration="none" x="0.5" fill="rgb(0, 0, 0)" font-size="9pt" font-family="Lato"  y="17">1</text><text text-decoration="none" x="7.5" fill="#4b4b4b" font-size="10pt" font-family="noto_regular"  y="17"></text></g><g transform="translate(353.42499977350235, 815.5750002264977)" width="8" height="19"><text text-decoration="none" x="0.5" fill="rgb(0, 0, 0)" font-size="9pt" font-family="Lato"  y="17">1</text><text text-decoration="none" x="7.5" fill="#4b4b4b" font-size="10pt" font-family="noto_regular"  y="17"></text></g></g><g id="1eb9se09zi"><mask id="bddd7" x="437" y="877" width="86" height="26" maskUnits="userSpaceOnUse"><rect x="437" y="877" width="86" height="26" fill="white" /><rect x="472" y="877.5" width="16" height="25" fill="black" /></mask><g mask="url(#bddd7)"><path d="M 450,890 L 510,890" fill="none" stroke="#a0a0a0" stroke-width="1.5" stroke-linecap="round" stroke-linejoin="round"/></g><g transform="translate(475, 880.5)" width="10" height="19"><text text-decoration="none" x="0" fill="rgb(0, 0, 0)" font-size="9pt" font-family="Lato"  y="17">M</text><text text-decoration="none" x="11" fill="#4b4b4b" font-size="10pt" font-family="noto_regular"  y="17"></text></g></g><g id="9hgam8dlzz"><g transform="translate(510 535)"><rect x="0" y="0" width="80.0000011920929" height="34.99999940395355" fill="rgba(255,255,255,1)" stroke="#75c19b" stroke-width="1.5" stroke-linecap="round" stroke-linejoin="round"/></g><g transform="translate(523.5000005960464, 542.9999997019768) rotate(0, 26.5, 9.5)" width="53" height="19"><text text-decoration="none" x="1.5" fill="rgb(75, 75, 75)" font-size="10pt" font-family="Lato"  y="17">routines</text><text text-decoration="none" x="51.5" fill="#4b4b4b" font-size="10pt" font-family="noto_regular"  y="17"></text></g></g><g id="2e4s4yak0t"><g transform="translate(320 480)"><ellipse cx="37.5" cy="20.000000298023224" rx="37.5" ry="20.000000298023224" fill="rgba(255,255,255,1)" stroke="#f6902a" stroke-width="1.5" stroke-linecap="round" stroke-linejoin="round"/></g><g transform="translate(343, 490.5000002980232) rotate(0, 14.5, 9.5)" width="29" height="19"><text text-decoration="underline" x="1.5" fill="rgb(75, 75, 75)" font-size="10pt" font-family="Lato"  y="17">year</text><text text-decoration="none" x="27.5" fill="#4b4b4b" font-size="10pt" font-family="noto_regular"  y="17"></text></g></g><g id="2fzk1j7bm2"><g><path d="M 510,550 L 395,500" fill="none" stroke="#a0a0a0" stroke-width="1.5" stroke-linecap="round" stroke-linejoin="round"/></g></g><g id="6com6gkg8k"><g transform="translate(370 415)"><ellipse cx="37.5" cy="20.000000298023224" rx="37.5" ry="20.000000298023224" fill="rgba(255,255,255,1)" stroke="#f6902a" stroke-width="1.5" stroke-linecap="round" stroke-linejoin="round"/></g><g transform="translate(384, 425.5000002980232) rotate(0, 23.5, 9.5)" width="47" height="19"><text text-decoration="underline" x="2" fill="rgb(75, 75, 75)" font-size="10pt" font-family="Lato"  y="17">section</text><text text-decoration="none" x="45" fill="#4b4b4b" font-size="10pt" font-family="noto_regular"  y="17"></text></g></g><g id="w6zjm5pkta"><g><path d="M 510,550 L 430,450" fill="none" stroke="#a0a0a0" stroke-width="1.5" stroke-linecap="round" stroke-linejoin="round"/></g></g><g id="2cj93l0tbr"><g transform="translate(465 395)"><ellipse cx="37.5" cy="20.000000298023224" rx="37.5" ry="20.000000298023224" fill="rgba(255,255,255,1)" stroke="#f6902a" stroke-width="1.5" stroke-linecap="round" stroke-linejoin="round"/></g><g transform="translate(490.5, 405.5000002980232) rotate(0, 12, 9.5)" width="24" height="19"><text text-decoration="underline" x="1" fill="rgb(75, 75, 75)" font-size="10pt" font-family="Lato"  y="17">day</text><text text-decoration="none" x="23" fill="#4b4b4b" font-size="10pt" font-family="noto_regular"  y="17"></text></g></g><g id="1rdoxdv01r"><g><path d="M 550,535 L 515,435" fill="none" stroke="#a0a0a0" stroke-width="1.5" stroke-linecap="round" stroke-linejoin="round"/></g></g><g id="67lkt56b48"><g transform="translate(560 390)"><ellipse cx="42.500001192092896" cy="17.499999701976776" rx="42.500001192092896" ry="17.499999701976776" fill="rgba(255,255,255,1)" stroke="#f6902a" stroke-width="1.5" stroke-linecap="round" stroke-linejoin="round"/></g><g transform="translate(581.5000011920929, 397.9999997019768) rotate(0, 21, 9.5)" width="42" height="19"><text text-decoration="underline" x="2" fill="rgb(75, 75, 75)" font-size="10pt" font-family="Lato"  y="17">timing</text><text text-decoration="none" x="40" fill="#4b4b4b" font-size="10pt" font-family="noto_regular"  y="17"></text></g></g><g id="af7pyqdhbz"><g><path d="M 550,535 L 590,425" fill="none" stroke="#a0a0a0" stroke-width="1.5" stroke-linecap="round" stroke-linejoin="round"/></g></g><g id="2b9b75nndp"><g transform="translate(610 455)"><ellipse cx="40.00000059604645" cy="17.499999701976776" rx="40.00000059604645" ry="17.499999701976776" fill="rgba(255,255,255,1)" stroke="#f6902a" stroke-width="1.5" stroke-linecap="round" stroke-linejoin="round"/></g><g transform="translate(629.0000005960464, 462.9999997019768) rotate(0, 21, 9.5)" width="42" height="19"><text text-decoration="none" x="1.5" fill="rgb(75, 75, 75)" font-size="10pt" font-family="Lato"  y="17">sub_id</text><text text-decoration="none" x="40.5" fill="#4b4b4b" font-size="10pt" font-family="noto_regular"  y="17"></text></g></g><g id="2evv83hbc7"><g><path d="M 590,550 L 625,490" fill="none" stroke="#a0a0a0" stroke-width="1.5" stroke-linecap="round" stroke-linejoin="round"/></g></g><g id="487fryrnu2"><g transform="translate(695 485.05)"><ellipse cx="37.5" cy="20.000000298023224" rx="37.5" ry="20.000000298023224" fill="rgba(255,255,255,1)" stroke="#f6902a" stroke-width="1.5" stroke-linecap="round" stroke-linejoin="round"/></g><g transform="translate(710, 495.5500002980232) rotate(0, 22.5, 9.5)" width="45" height="19"><text text-decoration="none" x="1.5" fill="rgb(75, 75, 75)" font-size="10pt" font-family="Lato"  y="17">prof_id</text><text text-decoration="none" x="43.5" fill="#4b4b4b" font-size="10pt" font-family="noto_regular"  y="17"></text></g></g><g id="hbht7ewi4e"><g><path d="M 590,550 L 695,505.05" fill="none" stroke="#a0a0a0" stroke-width="1.5" stroke-linecap="round" stroke-linejoin="round"/></g></g><g id="1gh4xssaid"><g transform="translate(685 865)"><path d="M 104.99999761581421,24.999999403953552 L 52.499998807907104,49.999998807907104 L 0,24.999999403953552 L 52.499998807907104,0 L 104.99999761581421,24.999999403953552 L 104.99999761581421,24.999999403953552 Z" fill="rgba(255,255,255,1)" stroke="#75c19b" stroke-width="1.5" stroke-linecap="round" stroke-linejoin="round"/></g><g transform="translate(711.9999988079071, 880.4999994039536) rotate(0, 25.5, 9.5)" width="51" height="19"><text text-decoration="none" x="2.5" fill="rgb(75, 75, 75)" font-size="10pt" font-family="Lato"  y="17">teaches</text><text text-decoration="none" x="48.5" fill="#4b4b4b" font-size="10pt" font-family="noto_regular"  y="17"></text></g></g><g id="1wdh272tem"><mask id="58e6c" x="722" y="787" width="121" height="91" maskUnits="userSpaceOnUse"><rect x="722" y="787" width="121" height="91" fill="white" /><rect x="774.5000011920929" y="820.0000011920929" width="16" height="25" fill="black" /><rect x="774.5000011920929" y="820.0000011920929" width="16" height="25" fill="black" /></mask><g mask="url(#58e6c)"><path d="M 830,800 L 830,832.5000011920929 L 782.5,832.5000011920929 L 735,832.5000011920929 L 735,865" fill="none" stroke="#a0a0a0" stroke-width="1.5" stroke-linecap="round" stroke-linejoin="round"/></g><g transform="translate(777.5000011920929, 823.0000011920929)" width="10" height="19"><text text-decoration="none" x="0" fill="rgb(0, 0, 0)" font-size="9pt" font-family="Lato"  y="17">M</text><text text-decoration="none" x="11" fill="#4b4b4b" font-size="10pt" font-family="noto_regular"  y="17"></text></g><g transform="translate(777.5000011920929, 823.0000011920929)" width="10" height="19"><text text-decoration="none" x="0" fill="rgb(0, 0, 0)" font-size="9pt" font-family="Lato"  y="17">M</text><text text-decoration="none" x="11" fill="#4b4b4b" font-size="10pt" font-family="noto_regular"  y="17"></text></g></g><g id="23v25fsasv"><mask id="6d7f5" x="587" y="877" width="111" height="26" maskUnits="userSpaceOnUse"><rect x="587" y="877" width="111" height="26" fill="white" /><rect x="634.5" y="877.5" width="16" height="25" fill="black" /></mask><g mask="url(#6d7f5)"><path d="M 600,890 L 685,890" fill="none" stroke="#a0a0a0" stroke-width="1.5" stroke-linecap="round" stroke-linejoin="round"/></g><g transform="translate(637.5, 880.5)" width="10" height="19"><text text-decoration="none" x="0" fill="rgb(75, 75, 75)" font-weight="bold" font-size="9pt" font-family="Arial"  y="17">N</text><text text-decoration="none" x="10" fill="#4b4b4b" font-size="10pt" font-family="noto_regular"  y="17"></text></g></g><g id="6ka5c3ajme"><g transform="translate(485 710)"><path d="M 130,30 L 65,60 L 0,30 L 65,0 L 130,30 L 130,30 Z" fill="rgba(255,255,255,1)" stroke="#75c19b" stroke-width="1.5" stroke-linecap="round" stroke-linejoin="round"/></g><g transform="translate(512, 730.5) rotate(0, 38, 9.5)" width="76" height="19"><text text-decoration="none" x="3.5" fill="rgb(75, 75, 75)" font-size="10pt" font-family="Lato"  y="17">followed&#160;</text><text text-decoration="none" x="57.5" fill="rgb(75, 75, 75)" font-size="10pt" font-family="Lato"  y="17">by</text><text text-decoration="none" x="72.5" fill="#4b4b4b" font-size="10pt" font-family="noto_regular"  y="17"></text></g></g><g id="79ux5xrgo5"><mask id="fdc80" x="537" y="557" width="26" height="166" maskUnits="userSpaceOnUse"><rect x="537" y="557" width="26" height="166" fill="white" /><rect x="543" y="627.5" width="14" height="25" fill="black" /><rect x="543" y="627.5" width="14" height="25" fill="black" /></mask><g mask="url(#fdc80)"><path d="M 550,570 L 550,710" fill="none" stroke="#a0a0a0" stroke-width="1.5" stroke-linecap="round" stroke-linejoin="round"/></g><g transform="translate(546, 630.5)" width="8" height="19"><text text-decoration="none" x="0.5" fill="rgb(0, 0, 0)" font-size="9pt" font-family="Lato"  y="17">1</text><text text-decoration="none" x="7.5" fill="#4b4b4b" font-size="10pt" font-family="noto_regular"  y="17"></text></g><g transform="translate(546, 630.5)" width="8" height="19"><text text-decoration="none" x="0.5" fill="rgb(0, 0, 0)" font-size="9pt" font-family="Lato"  y="17">1</text><text text-decoration="none" x="7.5" fill="#4b4b4b" font-size="10pt" font-family="noto_regular"  y="17"></text></g></g><g id="2g94teo5ci"><mask id="fa598" x="342" y="727" width="156" height="71" maskUnits="userSpaceOnUse"><rect x="342" y="727" width="156" height="71" fill="white" /><rect x="389.5" y="727.5" width="16" height="25" fill="black" /></mask><g mask="url(#fa598)"><path d="M 355,785 L 391.5,785 L 391.5,762.5 L 391.5,740 L 485,740" fill="none" stroke="#a0a0a0" stroke-width="1.5" stroke-linecap="round" stroke-linejoin="round"/></g><g transform="translate(392.5, 730.5)" width="10" height="19"><text text-decoration="none" x="0" fill="rgb(75, 75, 75)" font-weight="bold" font-size="9pt" font-family="Arial"  y="17">N</text><text text-decoration="none" x="10" fill="#4b4b4b" font-size="10pt" font-family="noto_regular"  y="17"></text></g></g><g id="ckv749auyn"><mask id="cd92e" x="602" y="727" width="196" height="71" maskUnits="userSpaceOnUse"><rect x="602" y="727" width="196" height="71" fill="white" /><rect x="714.5" y="727.5" width="16" height="25" fill="black" /></mask><g mask="url(#cd92e)"><path d="M 785,785 L 730,785 L 730,762.5 L 730,740 L 615,740" fill="none" stroke="#a0a0a0" stroke-width="1.5" stroke-linecap="round" stroke-linejoin="round"/></g><g transform="translate(717.5, 730.5)" width="10" height="19"><text text-decoration="none" x="0" fill="rgb(0, 0, 0)" font-size="9pt" font-family="Lato"  y="17">M</text><text text-decoration="none" x="11" fill="#4b4b4b" font-size="10pt" font-family="noto_regular"  y="17"></text></g></g><g id="2ow9b5mtug"><g transform="translate(505 1175)"><rect x="0" y="0" width="104.99999523162842" height="34.99999940395355" fill="rgba(255,255,255,1)" stroke="#75c19b" stroke-width="1.5" stroke-linecap="round" stroke-linejoin="round"/></g><g transform="translate(517.4999976158142, 1182.9999997019768) rotate(0, 40, 9.5)" width="80" height="19"><text text-decoration="none" x="3" fill="rgb(75, 75, 75)" font-size="10pt" font-family="Lato"  y="17">attendances</text><text text-decoration="none" x="77" fill="#4b4b4b" font-size="10pt" font-family="noto_regular"  y="17"></text></g></g><g id="27g94nrpzb"><g transform="translate(370 1245)"><ellipse cx="44.999998807907104" cy="20.000000298023224" rx="44.999998807907104" ry="20.000000298023224" fill="rgba(255,255,255,1)" stroke="#f6902a" stroke-width="1.5" stroke-linecap="round" stroke-linejoin="round"/></g><g transform="translate(384.9999988079071, 1255.5000002980232) rotate(0, 30, 9.5)" width="60" height="19"><text text-decoration="underline" x="2" fill="rgb(75, 75, 75)" font-size="10pt" font-family="Lato"  y="17">enroll_no</text><text text-decoration="none" x="58" fill="#4b4b4b" font-size="10pt" font-family="noto_regular"  y="17"></text></g></g><g id="6skqzplto6"><g><path d="M 505,1190 L 460,1265" fill="none" stroke="#a0a0a0" stroke-width="1.5" stroke-linecap="round" stroke-linejoin="round"/></g></g><g id="5g1r23e896"><g transform="translate(495 1265)"><ellipse cx="47.49999940395355" cy="17.499999701976776" rx="47.49999940395355" ry="17.499999701976776" fill="rgba(255,255,255,1)" stroke="#f6902a" stroke-width="1.5" stroke-linecap="round" stroke-linejoin="round"/></g><g transform="translate(507.99999940395355, 1272.9999997019768) rotate(0, 34.5, 9.5)" width="69" height="19"><text text-decoration="none" x="4" fill="rgb(75, 75, 75)" font-size="10pt" font-family="Lato"  y="17">class_date</text><text text-decoration="none" x="65" fill="#4b4b4b" font-size="10pt" font-family="noto_regular"  y="17"></text></g></g><g id="5otxivrza4"><g><path d="M 555,1210 L 555,1265" fill="none" stroke="#a0a0a0" stroke-width="1.5" stroke-linecap="round" stroke-linejoin="round"/></g></g><g id="1tlonirgu9"><g transform="translate(620 1240)"><ellipse cx="50" cy="25" rx="50" ry="25" fill="rgba(255,255,255,1)" stroke="#f6902a" stroke-width="1.5" stroke-linecap="round" stroke-linejoin="round"/><ellipse cx="50" cy="25" rx="45" ry="20" fill="rgba(255,255,255,1)" stroke="#f6902a" stroke-width="1.5" stroke-linecap="round" stroke-linejoin="round"/></g><g transform="translate(646, 1255.5) rotate(0, 24, 9.5)" width="48" height="19"><text text-decoration="none" x="1.5" fill="rgb(75, 75, 75)" font-size="10pt" font-family="Lato"  y="17">periods</text><text text-decoration="none" x="46.5" fill="#4b4b4b" font-size="10pt" font-family="noto_regular"  y="17"></text></g></g><g id="b0g0rfe3e3"><g><path d="M 610,1190 L 640,1245" fill="none" stroke="#a0a0a0" stroke-width="1.5" stroke-linecap="round" stroke-linejoin="round"/></g></g><g id="b8g9e2xldx"><g transform="translate(275 1040)"><path d="M 94.99999821186066,22.5 L 47.49999910593033,45 L 0,22.5 L 47.49999910593033,0 L 94.99999821186066,22.5 L 94.99999821186066,22.5 Z" fill="rgba(255,255,255,1)" stroke="#75c19b" stroke-width="1.5" stroke-linecap="round" stroke-linejoin="round"/></g><g transform="translate(304.9999991059303, 1053) rotate(0, 17.5, 9.5)" width="35" height="19"><text text-decoration="none" x="2.5" fill="rgb(75, 75, 75)" font-size="10pt" font-family="Lato"  y="17">gives</text><text text-decoration="none" x="32.5" fill="#4b4b4b" font-size="10pt" font-family="noto_regular"  y="17"></text></g></g><g id="1owaieiz7a"><mask id="1dd73" x="307" y="1072" width="211" height="131" maskUnits="userSpaceOnUse"><rect x="307" y="1072" width="211" height="131" fill="white" /><rect x="352" y="1177.5" width="16" height="25" fill="black" /><rect x="352" y="1177.5" width="16" height="25" fill="black" /></mask><g mask="url(#1dd73)"><path d="M 505,1190 L 320,1190 L 320,1085" fill="none" stroke="#a0a0a0" stroke-width="1.5" stroke-linecap="round" stroke-linejoin="round"/></g><g transform="translate(355, 1180.5)" width="10" height="19"><text text-decoration="none" x="0" fill="rgb(75, 75, 75)" font-weight="bold" font-size="9pt" font-family="Arial"  y="17">N</text><text text-decoration="none" x="10" fill="#4b4b4b" font-size="10pt" font-family="noto_regular"  y="17"></text></g><g transform="translate(355, 1180.5)" width="10" height="19"><text text-decoration="none" x="0" fill="rgb(75, 75, 75)" font-weight="bold" font-size="9pt" font-family="Arial"  y="17">N</text><text text-decoration="none" x="10" fill="#4b4b4b" font-size="10pt" font-family="noto_regular"  y="17"></text></g></g><g id="4nf4urz9jr"><mask id="e0179" x="307" y="787" width="26" height="266" maskUnits="userSpaceOnUse"><rect x="307" y="787" width="26" height="266" fill="white" /><rect x="313" y="907.5" width="14" height="25" fill="black" /></mask><g mask="url(#e0179)"><path d="M 320,1040 L 320,800" fill="none" stroke="#a0a0a0" stroke-width="1.5" stroke-linecap="round" stroke-linejoin="round"/></g><g transform="translate(316, 910.5)" width="8" height="19"><text text-decoration="none" x="0.5" fill="rgb(0, 0, 0)" font-size="9pt" font-family="Lato"  y="17">1</text><text text-decoration="none" x="7.5" fill="#4b4b4b" font-size="10pt" font-family="noto_regular"  y="17"></text></g></g><g id="8km7r6dfoj"><g transform="translate(780 1040)"><path d="M 104.99999761581421,30 L 52.499998807907104,60 L 0,30 L 52.499998807907104,0 L 104.99999761581421,30 L 104.99999761581421,30 Z" fill="rgba(255,255,255,1)" stroke="#75c19b" stroke-width="1.5" stroke-linecap="round" stroke-linejoin="round"/></g><g transform="translate(808.4999988079071, 1060.5) rotate(0, 24, 9.5)" width="48" height="19"><text text-decoration="none" x="1.5" fill="rgb(75, 75, 75)" font-size="10pt" font-family="Lato"  y="17">records</text><text text-decoration="none" x="46.5" fill="#4b4b4b" font-size="10pt" font-family="noto_regular"  y="17"></text></g></g><g id="8z8xjgjmzo"><mask id="0d992" x="817" y="787" width="26" height="266" maskUnits="userSpaceOnUse"><rect x="817" y="787" width="26" height="266" fill="white" /><rect x="822" y="907.5" width="16" height="25" fill="black" /><rect x="822" y="907.5" width="16" height="25" fill="black" /></mask><g mask="url(#0d992)"><path d="M 830,800 L 830,1040" fill="none" stroke="#a0a0a0" stroke-width="1.5" stroke-linecap="round" stroke-linejoin="round"/></g><g transform="translate(825, 910.5)" width="10" height="19"><text text-decoration="none" x="0" fill="rgb(75, 75, 75)" font-weight="bold" font-size="9pt" font-family="Arial"  y="17">N</text><text text-decoration="none" x="10" fill="#4b4b4b" font-size="10pt" font-family="noto_regular"  y="17"></text></g><g transform="translate(825, 910.5)" width="10" height="19"><text text-decoration="none" x="0" fill="rgb(75, 75, 75)" font-weight="bold" font-size="9pt" font-family="Arial"  y="17">N</text><text text-decoration="none" x="10" fill="#4b4b4b" font-size="10pt" font-family="noto_regular"  y="17"></text></g></g><g id="ntcnu04gvp"><mask id="5c79f" x="597" y="1087" width="246" height="116" maskUnits="userSpaceOnUse"><rect x="597" y="1087" width="246" height="116" fill="white" /><rect x="757" y="1177.5" width="16" height="25" fill="black" /></mask><g mask="url(#5c79f)"><path d="M 830,1100 L 830,1190 L 610,1190" fill="none" stroke="#a0a0a0" stroke-width="1.5" stroke-linecap="round" stroke-linejoin="round"/></g><g transform="translate(760, 1180.5)" width="10" height="19"><text text-decoration="none" x="0" fill="rgb(0, 0, 0)" font-size="9pt" font-family="Lato"  y="17">M</text><text text-decoration="none" x="11" fill="#4b4b4b" font-size="10pt" font-family="noto_regular"  y="17"></text></g></g><g id="1n7l7eul36"><g transform="translate(450 1065)"><rect x="0" y="0" width="225.00000095367432" height="69" fill="rgba(255,255,255,0.01)" stroke="rgba(255,255,255,0.01)" stroke-width="NaN" stroke-linecap="round" stroke-linejoin="round"/></g><g transform="translate(460.50000047683716, 1066) rotate(0, 102, 33.5)" width="204" height="67"><text text-decoration="none" x="10" fill="rgb(0, 0, 0)" font-weight="bold" font-size="10pt" font-family="Book Antiqua"  y="14">Entity&#160;</text><text text-decoration="none" x="52" fill="rgb(0, 0, 0)" font-weight="bold" font-size="10pt" font-family="Book Antiqua"  y="14">Relationship&#160;</text><text text-decoration="none" x="138" fill="rgb(0, 0, 0)" font-weight="bold" font-size="10pt" font-family="Book Antiqua"  y="14">Diagram&#160;</text><text text-decoration="none" x="24" fill="rgb(0, 0, 0)" font-weight="bold" font-size="10pt" font-family="Book Antiqua"  y="33">for&#160;</text><text text-decoration="none" x="46" fill="rgb(0, 0, 0)" font-weight="bold" font-size="10pt" font-family="Book Antiqua"  y="33">Student&#160;</text><text text-decoration="none" x="102" fill="rgb(0, 0, 0)" font-weight="bold" font-size="10pt" font-family="Book Antiqua"  y="33">Attendance&#160;</text><text text-decoration="none" x="0.5" fill="rgb(0, 0, 0)" font-weight="bold" font-size="10pt" font-family="Book Antiqua"  y="55">Database&#160;</text><text text-decoration="none" x="65.5" fill="rgb(0, 0, 0)" font-weight="bold" font-size="10pt" font-family="Book Antiqua"  y="55">Management&#160;</text><text text-decoration="none" x="156.5" fill="rgb(0, 0, 0)" font-weight="bold" font-size="10pt" font-family="Book Antiqua"  y="55">System</text><text text-decoration="none" x="203.5" fill="#4b4b4b" font-size="10pt" font-family="noto_regular"  y="55"></text></g></g></svg>